<mxfile host="app.diagrams.net" modified="2023-11-22T08:48:18.053Z" agent="Mozilla/5.0 (Windows NT 10.0; Win64; x64) AppleWebKit/537.36 (KHTML, like Gecko) Chrome/119.0.0.0 Safari/537.36 Edg/119.0.0.0" etag="1U98yK2FWgpOZKGGruRR" version="22.1.3" type="github">
  <diagram name="第 1 页" id="QQhJagrl6BgiinvDZEyo">
    <mxGraphModel dx="1002" dy="543" grid="1" gridSize="10" guides="1" tooltips="1" connect="1" arrows="1" fold="1" page="1" pageScale="1" pageWidth="827" pageHeight="1169" math="0" shadow="0">
      <root>
        <mxCell id="0" />
        <mxCell id="1" parent="0" />
        <mxCell id="mgJsT8kWnea1PuCRJPgu-13" value="" style="rounded=0;whiteSpace=wrap;html=1;fillColor=#fff2cc;strokeColor=#d6b656;" vertex="1" parent="1">
          <mxGeometry x="260" y="30" width="180" height="490" as="geometry" />
        </mxCell>
        <mxCell id="mgJsT8kWnea1PuCRJPgu-22" value="" style="edgeStyle=orthogonalEdgeStyle;rounded=0;orthogonalLoop=1;jettySize=auto;html=1;" edge="1" parent="1" source="mgJsT8kWnea1PuCRJPgu-1" target="mgJsT8kWnea1PuCRJPgu-21">
          <mxGeometry relative="1" as="geometry" />
        </mxCell>
        <mxCell id="mgJsT8kWnea1PuCRJPgu-1" value="Domain下包含各个小领域" style="rounded=0;whiteSpace=wrap;html=1;" vertex="1" parent="1">
          <mxGeometry x="290" y="250" width="120" height="60" as="geometry" />
        </mxCell>
        <mxCell id="mgJsT8kWnea1PuCRJPgu-4" style="edgeStyle=orthogonalEdgeStyle;rounded=0;orthogonalLoop=1;jettySize=auto;html=1;entryX=0.5;entryY=0;entryDx=0;entryDy=0;" edge="1" parent="1" source="mgJsT8kWnea1PuCRJPgu-2" target="mgJsT8kWnea1PuCRJPgu-1">
          <mxGeometry relative="1" as="geometry" />
        </mxCell>
        <mxCell id="mgJsT8kWnea1PuCRJPgu-2" value="Application" style="rounded=0;whiteSpace=wrap;html=1;" vertex="1" parent="1">
          <mxGeometry x="290" y="80" width="120" height="60" as="geometry" />
        </mxCell>
        <mxCell id="mgJsT8kWnea1PuCRJPgu-5" value="调用，编排业务流程" style="text;strokeColor=none;align=center;fillColor=none;html=1;verticalAlign=middle;whiteSpace=wrap;rounded=0;" vertex="1" parent="1">
          <mxGeometry x="354" y="170" width="60" height="30" as="geometry" />
        </mxCell>
        <mxCell id="mgJsT8kWnea1PuCRJPgu-6" value="RPC定义开始接口" style="rounded=0;whiteSpace=wrap;html=1;fillColor=#f5f5f5;fontColor=#333333;strokeColor=#666666;" vertex="1" parent="1">
          <mxGeometry x="35" y="210" width="130" height="60" as="geometry" />
        </mxCell>
        <mxCell id="mgJsT8kWnea1PuCRJPgu-16" style="edgeStyle=orthogonalEdgeStyle;rounded=0;orthogonalLoop=1;jettySize=auto;html=1;" edge="1" parent="1" source="mgJsT8kWnea1PuCRJPgu-7" target="mgJsT8kWnea1PuCRJPgu-6">
          <mxGeometry relative="1" as="geometry" />
        </mxCell>
        <mxCell id="mgJsT8kWnea1PuCRJPgu-7" value="Interface" style="rounded=0;whiteSpace=wrap;html=1;fillColor=#dae8fc;strokeColor=#6c8ebf;" vertex="1" parent="1">
          <mxGeometry x="40" y="70" width="120" height="60" as="geometry" />
        </mxCell>
        <mxCell id="mgJsT8kWnea1PuCRJPgu-9" value="实现RPC定义的接口" style="text;strokeColor=none;align=center;fillColor=none;html=1;verticalAlign=middle;whiteSpace=wrap;rounded=0;" vertex="1" parent="1">
          <mxGeometry x="100" y="160" width="80" height="30" as="geometry" />
        </mxCell>
        <mxCell id="mgJsT8kWnea1PuCRJPgu-10" style="rounded=0;orthogonalLoop=1;jettySize=auto;html=1;entryX=-0.027;entryY=0.38;entryDx=0;entryDy=0;entryPerimeter=0;" edge="1" parent="1" source="mgJsT8kWnea1PuCRJPgu-7" target="mgJsT8kWnea1PuCRJPgu-2">
          <mxGeometry relative="1" as="geometry" />
        </mxCell>
        <mxCell id="mgJsT8kWnea1PuCRJPgu-12" value="调用App层的方法" style="text;strokeColor=none;align=center;fillColor=none;html=1;verticalAlign=middle;whiteSpace=wrap;rounded=0;" vertex="1" parent="1">
          <mxGeometry x="180" y="60" width="60" height="30" as="geometry" />
        </mxCell>
        <mxCell id="mgJsT8kWnea1PuCRJPgu-14" value="系统内部" style="text;strokeColor=none;align=center;fillColor=none;html=1;verticalAlign=middle;whiteSpace=wrap;rounded=0;" vertex="1" parent="1">
          <mxGeometry x="310" y="450" width="80" height="50" as="geometry" />
        </mxCell>
        <mxCell id="mgJsT8kWnea1PuCRJPgu-15" value="门面模式，充当中介" style="text;strokeColor=none;align=center;fillColor=none;html=1;verticalAlign=middle;whiteSpace=wrap;rounded=0;" vertex="1" parent="1">
          <mxGeometry x="45" y="30" width="110" height="30" as="geometry" />
        </mxCell>
        <mxCell id="mgJsT8kWnea1PuCRJPgu-17" value="" style="rounded=0;whiteSpace=wrap;html=1;fillColor=#ffe6cc;strokeColor=#d79b00;" vertex="1" parent="1">
          <mxGeometry x="7.5" y="390" width="200" height="140" as="geometry" />
        </mxCell>
        <mxCell id="mgJsT8kWnea1PuCRJPgu-18" value="外部系统" style="text;strokeColor=none;align=center;fillColor=none;html=1;verticalAlign=middle;whiteSpace=wrap;rounded=0;" vertex="1" parent="1">
          <mxGeometry x="67.5" y="440" width="80" height="50" as="geometry" />
        </mxCell>
        <mxCell id="mgJsT8kWnea1PuCRJPgu-19" style="edgeStyle=orthogonalEdgeStyle;rounded=0;orthogonalLoop=1;jettySize=auto;html=1;entryX=0.558;entryY=1.04;entryDx=0;entryDy=0;entryPerimeter=0;" edge="1" parent="1" source="mgJsT8kWnea1PuCRJPgu-17" target="mgJsT8kWnea1PuCRJPgu-6">
          <mxGeometry relative="1" as="geometry" />
        </mxCell>
        <mxCell id="mgJsT8kWnea1PuCRJPgu-20" value="外部使用RPC定义的接口" style="text;strokeColor=none;align=center;fillColor=none;html=1;verticalAlign=middle;whiteSpace=wrap;rounded=0;" vertex="1" parent="1">
          <mxGeometry x="110" y="320" width="90" height="30" as="geometry" />
        </mxCell>
        <mxCell id="mgJsT8kWnea1PuCRJPgu-21" value="Infrastructure数据库操作" style="rounded=0;whiteSpace=wrap;html=1;" vertex="1" parent="1">
          <mxGeometry x="290" y="370" width="120" height="60" as="geometry" />
        </mxCell>
      </root>
    </mxGraphModel>
  </diagram>
</mxfile>
